<?xml version="1.0" encoding="UTF-8" standalone="no"?>
<!-- Created with Inkscape (http://www.inkscape.org/) -->

<svg
   width="90.712181mm"
   height="62.560127mm"
   viewBox="0 0 90.712181 62.560127"
   version="1.1"
   id="svg1"
   xml:space="preserve"
   inkscape:version="1.4.3 (0d15f75, 2025-12-25)"
   sodipodi:docname="icons.svg"
   xmlns:inkscape="http://www.inkscape.org/namespaces/inkscape"
   xmlns:sodipodi="http://sodipodi.sourceforge.net/DTD/sodipodi-0.dtd"
   xmlns="http://www.w3.org/2000/svg"
   xmlns:svg="http://www.w3.org/2000/svg"><sodipodi:namedview
     id="namedview1"
     pagecolor="#505050"
     bordercolor="#ffffff"
     borderopacity="1"
     inkscape:showpageshadow="0"
     inkscape:pageopacity="0"
     inkscape:pagecheckerboard="1"
     inkscape:deskcolor="#505050"
     inkscape:document-units="mm"
     inkscape:zoom="1.0396254"
     inkscape:cx="167.36797"
     inkscape:cy="485.27093"
     inkscape:window-width="2560"
     inkscape:window-height="1369"
     inkscape:window-x="-8"
     inkscape:window-y="-8"
     inkscape:window-maximized="1"
     inkscape:current-layer="layer1-8"><inkscape:page
       x="0"
       y="0"
       width="90.712181"
       height="62.560127"
       id="page2"
       margin="0"
       bleed="0" /></sodipodi:namedview><defs
     id="defs1" /><g
     inkscape:label="Layer 1"
     inkscape:groupmode="layer"
     id="layer1"
     transform="translate(-35.821483,-113.7809)"><g
       id="layer1-8"
       transform="matrix(0.28959958,0,0,0.28959958,20.160121,112.25303)"><path
         d="m 210.53177,221.29866 c 0,0 98.12514,0 122.46443,-6.48069 13.70449,-3.6724 24.01093,-14.2575 27.62825,-27.32688 6.68807,-23.97854 6.68807,-74.41988 6.68807,-74.41988 0,0 0,-50.117297 -6.68807,-73.879819 C 357.00713,25.79798 346.70069,15.42887 332.9962,11.864515 308.65691,5.2758072 210.53177,5.2758072 210.53177,5.2758072 c 0,0 -97.9062,0 -122.135976,6.5887078 -13.485335,3.564355 -24.010529,13.933465 -27.847831,27.326876 -6.468588,23.762522 -6.468588,73.879819 -6.468588,73.879819 0,0 0,50.44134 6.468588,74.41988 3.837302,13.06938 14.362496,23.65448 27.847831,27.32688 24.229776,6.48069 122.135976,6.48069 122.135976,6.48069 z"
         fill="#ff0033"
         id="path1412"
         style="fill:#eb5757;fill-opacity:1;stroke-width:0.0208149"
         clip-path="none" /><path
         d="M 259.30109,113.28723 178.29251,67.382379 v 91.809711 z"
         fill="#ffffff"
         id="path1414"
         style="stroke-width:0.0208149"
         clip-path="none" /></g></g></svg>
