<?xml version="1.0" standalone="no"?>
<!DOCTYPE svg PUBLIC "-//W3C//DTD SVG 20010904//EN"
 "http://www.w3.org/TR/2001/REC-SVG-20010904/DTD/svg10.dtd">
<svg version="1.0" xmlns="http://www.w3.org/2000/svg"
 width="1216.000000pt" height="1216.000000pt" viewBox="0 0 1216.000000 1216.000000"
 preserveAspectRatio="xMidYMid meet">
<metadata>
Created by potrace 1.14, written by Peter Selinger 2001-2017
</metadata>
<g transform="translate(0.000000,1216.000000) scale(0.100000,-0.100000)"
fill="#000000" stroke="none">
<path d="M560 6080 l0 -3280 2320 0 2320 0 0 720 0 720 -1600 0 -1600 0 0
2560 0 2560 -720 0 -720 0 0 -3280z"/>
<path d="M6960 6080 l0 -3280 2000 0 2000 0 0 640 0 640 320 0 320 0 0 720 0
720 -320 0 -320 0 0 560 0 560 320 0 320 0 0 720 0 720 -320 0 -320 0 0 640 0
640 -2000 0 -2000 0 0 -3280z m3200 1280 l0 -560 -880 0 -880 0 0 560 0 560
880 0 880 0 0 -560z m0 -2560 l0 -560 -880 0 -880 0 0 560 0 560 880 0 880 0
0 -560z"/>
</g>
</svg>
