{
	"asset":{
		"generator":"Khronos glTF Blender I/O v4.1.63",
		"version":"2.0"
	},
	"scene":0,
	"scenes":[
		{
			"name":"Scene",
			"nodes":[
				0
			]
		}
	],
	"nodes":[
		{
			"mesh":0,
			"name":"Text"
		}
	],
	"meshes":[
		{
			"name":"Text",
			"primitives":[
				{
					"attributes":{
						"POSITION":0,
						"NORMAL":1,
						"TEXCOORD_0":2
					},
					"indices":3
				}
			]
		}
	],
	"accessors":[
		{
			"bufferView":0,
			"componentType":5126,
			"count":3486,
			"max":[
				4.623000144958496,
				0.10000014305114746,
				0.009000000543892384
			],
			"min":[
				0.04800000041723251,
				-0.10000014305114746,
				-0.6910000443458557
			],
			"type":"VEC3"
		},
		{
			"bufferView":1,
			"componentType":5126,
			"count":3486,
			"type":"VEC3"
		},
		{
			"bufferView":2,
			"componentType":5126,
			"count":3486,
			"type":"VEC2"
		},
		{
			"bufferView":3,
			"componentType":5123,
			"count":10332,
			"type":"SCALAR"
		}
	],
	"bufferViews":[
		{
			"buffer":0,
			"byteLength":41832,
			"byteOffset":0,
			"target":34962
		},
		{
			"buffer":0,
			"byteLength":41832,
			"byteOffset":41832,
			"target":34962
		},
		{
			"buffer":0,
			"byteLength":27888,
			"byteOffset":83664,
			"target":34962
		},
		{
			"buffer":0,
			"byteLength":20664,
			"byteOffset":111552,
			"target":34963
		}
	],
	"buffers":[
		{
			"byteLength":132216,
			"uri":"CoolBeans.bin"
		}
	]
}
