<svg xmlns="http://www.w3.org/2000/svg" width="144" height="128" class="svgbob"><style>.svgbob line, .svgbob path, .svgbob circle, .svgbob rect, .svgbob polygon {
    stroke: black;
    stroke-width: 2;
    stroke-opacity: 1;
    fill-opacity: 1;
    stroke-linecap: round;
    stroke-linejoin: miter;
}
.svgbob text {
    white-space: pre;
    fill: black;
    font-family: Iosevka Fixed, monospace;
    font-size: 14px;
}
.svgbob rect.backdrop {
    stroke: none;
    fill: white;
}
.svgbob .broken {
    stroke-dasharray: 8;
}
.svgbob .filled {
    fill: black;
}
.svgbob .bg_filled {
    fill: white;
    stroke-width: 1;
}
.svgbob .nofill {
    fill: white;
}
.svgbob .end_marked_arrow {
    marker-end: url(#arrow);
}
.svgbob .start_marked_arrow {
    marker-start: url(#arrow);
}
.svgbob .end_marked_diamond {
    marker-end: url(#diamond);
}
.svgbob .start_marked_diamond {
    marker-start: url(#diamond);
}
.svgbob .end_marked_circle {
    marker-end: url(#circle);
}
.svgbob .start_marked_circle {
    marker-start: url(#circle);
}
.svgbob .end_marked_open_circle {
    marker-end: url(#open_circle);
}
.svgbob .start_marked_open_circle {
    marker-start: url(#open_circle);
}
.svgbob .end_marked_big_open_circle {
    marker-end: url(#big_open_circle);
}
.svgbob .start_marked_big_open_circle {
    marker-start: url(#big_open_circle);
}<!--separator--></style><defs><marker id="arrow" viewBox="-2 -2 8 8" refX="4" refY="2" markerWidth="7" markerHeight="7" orient="auto-start-reverse"><polygon points="0,0 0,4 4,2 0,0"></polygon></marker><marker id="diamond" viewBox="-2 -2 8 8" refX="4" refY="2" markerWidth="7" markerHeight="7" orient="auto-start-reverse"><polygon points="0,2 2,0 4,2 2,4 0,2"></polygon></marker><marker id="circle" viewBox="0 0 8 8" refX="4" refY="4" markerWidth="7" markerHeight="7" orient="auto-start-reverse"><circle cx="4" cy="4" r="2" class="filled"></circle></marker><marker id="open_circle" viewBox="0 0 8 8" refX="4" refY="4" markerWidth="7" markerHeight="7" orient="auto-start-reverse"><circle cx="4" cy="4" r="2" class="bg_filled"></circle></marker><marker id="big_open_circle" viewBox="0 0 8 8" refX="4" refY="4" markerWidth="7" markerHeight="7" orient="auto-start-reverse"><circle cx="4" cy="4" r="3" class="bg_filled"></circle></marker></defs><rect class="backdrop" x="0" y="0" width="144" height="128"></rect><rect x="8" y="16" width="8" height="16" class="solid filled" rx="0"></rect><rect x="16" y="16" width="8" height="16" class="solid filled" rx="0"></rect><rect x="72" y="16" width="8" height="16" class="solid filled" rx="0"></rect><rect x="80" y="16" width="8" height="16" class="solid filled" rx="0"></rect><rect x="88" y="16" width="8" height="16" class="solid filled" rx="0"></rect><rect x="96" y="16" width="8" height="16" class="solid filled" rx="0"></rect><rect x="104" y="16" width="8" height="16" class="solid filled" rx="0"></rect><rect x="112" y="16" width="8" height="16" class="solid filled" rx="0"></rect><rect x="8" y="32" width="8" height="16" class="solid filled" rx="0"></rect><rect x="16" y="32" width="8" height="16" class="solid filled" rx="0"></rect><rect x="72" y="32" width="8" height="16" class="solid filled" rx="0"></rect><rect x="80" y="32" width="8" height="16" class="solid filled" rx="0"></rect><rect x="112" y="32" width="8" height="16" class="solid filled" rx="0"></rect><rect x="120" y="32" width="8" height="16" class="solid filled" rx="0"></rect><rect x="8" y="48" width="8" height="16" class="solid filled" rx="0"></rect><rect x="16" y="48" width="8" height="16" class="solid filled" rx="0"></rect><rect x="72" y="48" width="8" height="16" class="solid filled" rx="0"></rect><rect x="80" y="48" width="8" height="16" class="solid filled" rx="0"></rect><rect x="88" y="48" width="8" height="16" class="solid filled" rx="0"></rect><rect x="96" y="48" width="8" height="16" class="solid filled" rx="0"></rect><rect x="104" y="48" width="8" height="16" class="solid filled" rx="0"></rect><rect x="112" y="48" width="8" height="16" class="solid filled" rx="0"></rect><rect x="8" y="64" width="8" height="16" class="solid filled" rx="0"></rect><rect x="16" y="64" width="8" height="16" class="solid filled" rx="0"></rect><rect x="72" y="64" width="8" height="16" class="solid filled" rx="0"></rect><rect x="80" y="64" width="8" height="16" class="solid filled" rx="0"></rect><rect x="112" y="64" width="8" height="16" class="solid filled" rx="0"></rect><rect x="120" y="64" width="8" height="16" class="solid filled" rx="0"></rect><rect x="8" y="80" width="8" height="16" class="solid filled" rx="0"></rect><rect x="16" y="80" width="8" height="16" class="solid filled" rx="0"></rect><rect x="24" y="80" width="8" height="16" class="solid filled" rx="0"></rect><rect x="32" y="80" width="8" height="16" class="solid filled" rx="0"></rect><rect x="40" y="80" width="8" height="16" class="solid filled" rx="0"></rect><rect x="48" y="80" width="8" height="16" class="solid filled" rx="0"></rect><rect x="56" y="80" width="8" height="16" class="solid filled" rx="0"></rect><rect x="72" y="80" width="8" height="16" class="solid filled" rx="0"></rect><rect x="80" y="80" width="8" height="16" class="solid filled" rx="0"></rect><rect x="88" y="80" width="8" height="16" class="solid filled" rx="0"></rect><rect x="96" y="80" width="8" height="16" class="solid filled" rx="0"></rect><rect x="104" y="80" width="8" height="16" class="solid filled" rx="0"></rect><rect x="112" y="80" width="8" height="16" class="solid filled" rx="0"></rect><g><line x1="24" y1="24" x2="30" y2="24" class="solid"></line><line x1="30" y1="24" x2="30" y2="80" class="solid"></line></g><g><line x1="24" y1="28" x2="26" y2="28" class="solid"></line><line x1="26" y1="28" x2="26" y2="80" class="solid"></line></g><g><line x1="120" y1="24" x2="126" y2="24" class="solid"></line><line x1="126" y1="24" x2="126" y2="32" class="solid"></line></g><g><line x1="120" y1="28" x2="122" y2="28" class="solid"></line><line x1="122" y1="28" x2="122" y2="32" class="solid"></line></g><g><line x1="90" y1="40" x2="112" y2="40" class="solid"></line><line x1="90" y1="40" x2="90" y2="48" class="solid"></line></g><g><line x1="94" y1="44" x2="112" y2="44" class="solid"></line><line x1="94" y1="44" x2="94" y2="48" class="solid"></line></g><g><line x1="128" y1="40" x2="134" y2="40" class="solid"></line><line x1="134" y1="40" x2="134" y2="60" class="solid"></line><line x1="126" y1="60" x2="134" y2="60" class="solid"></line><line x1="126" y1="60" x2="126" y2="64" class="solid"></line></g><g><line x1="128" y1="44" x2="130" y2="44" class="solid"></line><line x1="130" y1="44" x2="130" y2="56" class="solid"></line><line x1="122" y1="56" x2="130" y2="56" class="solid"></line><line x1="122" y1="56" x2="122" y2="64" class="solid"></line></g><g><line x1="90" y1="72" x2="112" y2="72" class="solid"></line><line x1="90" y1="72" x2="90" y2="80" class="solid"></line></g><g><line x1="94" y1="76" x2="112" y2="76" class="solid"></line><line x1="94" y1="76" x2="94" y2="80" class="solid"></line></g><g><line x1="128" y1="72" x2="134" y2="72" class="solid"></line><line x1="134" y1="72" x2="134" y2="92" class="solid"></line><line x1="126" y1="92" x2="134" y2="92" class="solid"></line><line x1="126" y1="92" x2="126" y2="108" class="solid"></line><line x1="74" y1="96" x2="74" y2="108" class="solid"></line><line x1="74" y1="108" x2="126" y2="108" class="solid"></line></g><g><line x1="128" y1="76" x2="130" y2="76" class="solid"></line><line x1="130" y1="76" x2="130" y2="88" class="solid"></line><line x1="122" y1="88" x2="130" y2="88" class="solid"></line><line x1="122" y1="88" x2="122" y2="104" class="solid"></line><line x1="78" y1="96" x2="78" y2="104" class="solid"></line><line x1="78" y1="104" x2="122" y2="104" class="solid"></line></g><g><line x1="64" y1="88" x2="70" y2="88" class="solid"></line><line x1="70" y1="88" x2="70" y2="108" class="solid"></line><line x1="10" y1="96" x2="10" y2="108" class="solid"></line><line x1="10" y1="108" x2="70" y2="108" class="solid"></line></g><g><line x1="64" y1="92" x2="66" y2="92" class="solid"></line><line x1="66" y1="92" x2="66" y2="104" class="solid"></line><line x1="14" y1="96" x2="14" y2="104" class="solid"></line><line x1="14" y1="104" x2="66" y2="104" class="solid"></line></g></svg>