<?xml version="1.0" encoding="UTF-8" standalone="no"?>
<!-- Created with Inkscape (http://www.inkscape.org/) -->

<svg
   width="25.399996mm"
   height="24.603258mm"
   viewBox="0 0 25.399996 24.603258"
   version="1.1"
   id="svg1"
   xml:space="preserve"
   inkscape:version="1.4.3 (0d15f75, 2025-12-25)"
   sodipodi:docname="icons.svg"
   xmlns:inkscape="http://www.inkscape.org/namespaces/inkscape"
   xmlns:sodipodi="http://sodipodi.sourceforge.net/DTD/sodipodi-0.dtd"
   xmlns="http://www.w3.org/2000/svg"
   xmlns:svg="http://www.w3.org/2000/svg"><sodipodi:namedview
     id="namedview1"
     pagecolor="#505050"
     bordercolor="#ffffff"
     borderopacity="1"
     inkscape:showpageshadow="0"
     inkscape:pageopacity="0"
     inkscape:pagecheckerboard="1"
     inkscape:deskcolor="#505050"
     inkscape:document-units="mm"
     inkscape:zoom="1.0396254"
     inkscape:cx="167.36797"
     inkscape:cy="485.27093"
     inkscape:window-width="2560"
     inkscape:window-height="1369"
     inkscape:window-x="-8"
     inkscape:window-y="-8"
     inkscape:window-maximized="1"
     inkscape:current-layer="layer1-8"><inkscape:page
       x="0"
       y="0"
       width="25.399996"
       height="24.603258"
       id="page2"
       margin="0"
       bleed="0" /></sodipodi:namedview><defs
     id="defs1" /><g
     inkscape:label="Layer 1"
     inkscape:groupmode="layer"
     id="layer1"
     transform="translate(-44.597958,-55.592512)"><g
       style="fill:none"
       id="g1"
       transform="matrix(0.26458333,0,0,0.26458333,40.31171,51.094592)"><path
         d="M 56.7937,84.9688 C 44.4187,83.4688 35.7,74.5625 35.7,63.0313 c 0,-4.6875 1.6875,-9.75 4.5,-13.125 -1.2188,-3.0938 -1.0313,-9.6563 0.375,-12.375 3.75,-0.4688 8.8125,1.5 11.8125,4.2187 3.5625,-1.125 7.3125,-1.6875 11.9062,-1.6875 4.5938,0 8.3438,0.5625 11.7188,1.5938 2.9062,-2.625 8.0625,-4.5938 11.8125,-4.125 1.3125,2.5312 1.5,9.0937 0.2812,12.2812 3,3.5625 4.5938,8.3438 4.5938,13.2188 0,11.5312 -8.7188,20.25 -21.2813,21.8437 3.1875,2.0625 5.3438,6.5625 5.3438,11.7188 v 9.7502 c 0,2.812 2.3437,4.406 5.1562,3.281 C 98.8875,103.156 112.2,86.1875 112.2,65.1875 112.2,38.6563 90.6375,17 64.1062,17 37.575,17 16.2,38.6562 16.2,65.1875 16.2,86 29.4187,103.25 47.2312,109.719 c 2.5313,0.937 4.9688,-0.75 4.9688,-3.281 v -7.5005 c -1.3125,0.5625 -3,0.9375 -4.5,0.9375 -6.1875,0 -9.8438,-3.375 -12.4688,-9.6562 -1.0312,-2.5313 -2.1562,-4.0313 -4.3125,-4.3125 -1.125,-0.0938 -1.5,-0.5625 -1.5,-1.125 0,-1.125 1.875,-1.9688 3.75,-1.9688 2.7188,0 5.0625,1.6875 7.5,5.1563 1.875,2.7187 3.8438,3.9375 6.1875,3.9375 2.3438,0 3.8438,-0.8438 6,-3 1.5938,-1.5938 2.8125,-3 3.9375,-3.9375 z"
         fill="#ffffff"
         id="path1" /></g></g></svg>
