<?xml version="1.0" encoding="UTF-8" standalone="no"?>
<!-- Created with Inkscape (http://www.inkscape.org/) -->

<svg
   width="64.696228mm"
   height="81.010284mm"
   viewBox="0 0 64.696228 81.010284"
   version="1.1"
   id="svg1"
   xml:space="preserve"
   inkscape:version="1.4.3 (0d15f75, 2025-12-25)"
   sodipodi:docname="icons.svg"
   xmlns:inkscape="http://www.inkscape.org/namespaces/inkscape"
   xmlns:sodipodi="http://sodipodi.sourceforge.net/DTD/sodipodi-0.dtd"
   xmlns="http://www.w3.org/2000/svg"
   xmlns:svg="http://www.w3.org/2000/svg"><sodipodi:namedview
     id="namedview1"
     pagecolor="#505050"
     bordercolor="#ffffff"
     borderopacity="1"
     inkscape:showpageshadow="0"
     inkscape:pageopacity="0"
     inkscape:pagecheckerboard="1"
     inkscape:deskcolor="#505050"
     inkscape:document-units="mm"
     inkscape:zoom="1.0396254"
     inkscape:cx="167.36797"
     inkscape:cy="485.27093"
     inkscape:window-width="2560"
     inkscape:window-height="1369"
     inkscape:window-x="-8"
     inkscape:window-y="-8"
     inkscape:window-maximized="1"
     inkscape:current-layer="layer1-8"><inkscape:page
       x="0"
       y="0"
       width="64.696228"
       height="81.010284"
       id="page2"
       margin="0"
       bleed="0" /></sodipodi:namedview><defs
     id="defs1" /><g
     inkscape:label="Layer 1"
     inkscape:groupmode="layer"
     id="layer1"
     transform="translate(-113.93069,-17.675007)"><g
       style="fill:none"
       id="g5"
       transform="matrix(2.0252571,0,0,2.0252571,113.93069,17.675006)"
       inkscape:export-filename="g5.svg"
       inkscape:export-xdpi="96"
       inkscape:export-ydpi="96"><path
         d="m 25.6686,26.0962 c -0.4874,0.1439 -1.203,0.1601 -1.9702,0.0488 -0.8234,-0.1194 -1.6633,-0.3711 -2.4888,-0.742 1.4721,-0.2142 2.6141,-0.1482 3.5909,0.1979 0.2314,0.082 0.6115,0.3012 0.8681,0.4953 z m -8.2134,-1.3503 c -0.0599,0.0163 -0.1189,0.0317 -0.1776,0.048 -0.3961,0.1078 -0.7815,0.213 -1.1529,0.3066 l -0.5008,0.127 c -1.0074,0.2549 -2.0374,0.5153 -3.0547,0.8254 0.3866,-0.9323 0.7458,-1.8749 1.0975,-2.7965 0.2604,-0.6822 0.5263,-1.3791 0.8013,-2.067 0.1395,0.2304 0.2851,0.4609 0.4366,0.692 0.6902,1.0512 1.5578,2.0231 2.5506,2.8645 z M 14.8927,14.2326 c 0.0653,1.1504 -0.1829,2.2571 -0.547,3.3188 -0.4485,-1.3128 -0.6575,-2.7625 -0.0968,-3.9329 0.1438,-0.3 0.2616,-0.4604 0.338,-0.5441 0.118,0.1822 0.2732,0.5898 0.3058,1.1582 z M 9.63347,28.8054 c -0.25199,0.4508 -0.50921,0.8728 -0.77284,1.2713 -0.63621,0.9588 -1.6767,1.9854 -2.21122,1.9854 -0.0526,0 -0.11625,-0.0085 -0.20926,-0.1067 C 6.38028,31.8926 6.37069,31.8476 6.37359,31.7862 6.39161,31.4337 6.85867,30.8059 7.53527,30.2238 8.14939,29.6957 8.84352,29.2262 9.63347,28.8054 Z M 27.3706,26.1461 c -0.0817,-1.1742 -2.0583,-1.9275 -2.0778,-1.9345 -0.7641,-0.2709 -1.5942,-0.4025 -2.5376,-0.4025 -1.0099,0 -2.0987,0.1461 -3.497,0.4728 -1.2442,-0.882 -2.319,-1.9862 -3.122,-3.2086 -0.3546,-0.5401 -0.6734,-1.0792 -0.9513,-1.6058 0.6784,-1.6221 1.2893,-3.3662 1.1783,-5.3196 -0.0895,-1.5663 -0.7958,-2.6184 -1.7563,-2.6184 -0.6589,0 -1.2262,0.488 -1.6875,1.4518 -0.8229,1.7174 -0.6066,3.9149 0.6426,6.5371 -0.4499,1.0567 -0.8679,2.1522 -1.2725,3.2127 -0.5034,1.3187 -1.0221,2.6792 -1.6067,3.9734 -1.63946,0.6487 -2.98632,1.4354 -4.10878,2.4012 -0.73532,0.6316 -1.62179,1.5971 -1.67239,2.605 -0.0247,0.4747 0.13806,0.91 0.46881,1.2588 0.35139,0.3703 0.79285,0.5653 1.27826,0.5659 1.60319,0 3.14619,-2.2027 3.4389,-2.6445 0.5891,-0.888 1.1405,-1.8785 1.6808,-3.021 1.3608,-0.4918 2.811,-0.8589 4.2166,-1.2137 l 0.5034,-0.1279 c 0.3784,-0.0962 0.7717,-0.2026 1.1751,-0.313 0.4269,-0.1154 0.8661,-0.2351 1.3125,-0.3488 1.4433,0.9179 2.9954,1.5166 4.5091,1.7363 1.275,0.1855 2.4073,0.0779 3.1738,-0.3217 0.6897,-0.3592 0.7277,-0.9135 0.7117,-1.135 z m 3.1049,10.0967 c 0,2.1504 -1.8953,2.283 -2.2777,2.2873 H 3.74486 c -2.14262,0 -2.27164,-1.9083 -2.27573,-2.2873 L 1.46884,3.75642 c 0,-2.15252 1.89879,-2.28302 2.27573,-2.28734 H 20.263 l 0.0088,0.00872 v 6.44616 c 0,1.29367 0.7821,3.74294 3.744,3.74294 h 6.4045 l 0.055,0.0549 z M 28.9572,10.1976 h -4.9403 c -2.142,0 -2.2716,-1.89791 -2.2745,-2.27343 v -4.9711 z m 2.9875,26.0452 V 11.1157 L 21.7424,0.871022 V 0.823357 H 21.6936 L 20.8742,0 H 3.74491 C 2.44954,0 0,0.785336 0,3.75711 V 36.2435 C 0,37.5427 0.782956,40 3.74491,40 H 28.2001 c 1.2951,-3e-4 3.7446,-0.7857 3.7446,-3.7572 z"
         fill="#eb5757"
         id="path1-1" /></g></g></svg>
